<svg id="visual" viewBox="0 0 900 300" width="900" height="300" xmlns="http://www.w3.org/2000/svg" xmlns:xlink="http://www.w3.org/1999/xlink" version="1.1"><path d="M0 81L21.5 74C43 67 86 53 128.8 51.7C171.7 50.3 214.3 61.7 257.2 69.5C300 77.3 343 81.7 385.8 75.7C428.7 69.7 471.3 53.3 514.2 45.7C557 38 600 39 642.8 51C685.7 63 728.3 86 771.2 94.3C814 102.7 857 96.3 878.5 93.2L900 90L900 0L878.5 0C857 0 814 0 771.2 0C728.3 0 685.7 0 642.8 0C600 0 557 0 514.2 0C471.3 0 428.7 0 385.8 0C343 0 300 0 257.2 0C214.3 0 171.7 0 128.8 0C86 0 43 0 21.5 0L0 0Z" fill="#284eb8" stroke-linecap="round" stroke-linejoin="miter"></path></svg>